Patient4_TMGait_0pt4_01_right_15_EMG.mot
version=1
nRows=23
nColumns=33
inDegrees=no
endheader
time	1LAddLong	2LGlutMax	3LGlutMed	4LIliopsoas	5LSemiMemb	6LBicFemLong	7LRecFem	8LVastMed	9LVastLat	10LGasMed	11LTibAnt	12lTibPost	13LPeroneusLong	14LSol	15LExtDigLong	16LFlexDigLong	17RAddLong	18RGlutMax	19RGlutMed	20RIliopsoas	21RSemiMemb	22RBicFemLong	23RRecFem	24RVastMed	25RVastLat	26RGasMed	27RTibAnt	28RTibPost	29RPeroneusLong	30RSol	31RExtDigLong	32RFlexDigLong
20.695	-0.010529	-0.044403	0.04776	0.01297	-0.012054	0.044708	0.037994	0.017395	-0.3122	0.056	-0.093384	0.009308	-0.14313	-0.097351	-0.18448	-0.018005	0.10483	-0.03952	-0.013275	-0.13062	-0.067139	0.097961	0.077209	-0.046539	0.030365	-0.012054	0.039368	-0.00885	-0.28778	0.054932	-0.001678	-0.018768
20.696	-0.038452	-0.080414	-0.031738	-0.001984	-0.012817	0.016785	0.032501	0.016327	-0.11963	0.027924	-0.10864	-0.002594	-0.18082	-0.070343	-0.091858	0.023193	0.074463	-0.068512	-0.14603	-0.17059	-0.066376	0.10086	0.070496	-0.1091	0.031281	-0.008087	-0.078888	0.001221	-0.34927	0.039063	-0.001221	-0.013733
20.697	-0.014496	-0.11551	-0.050659	-0.013885	-0.00885	0.018768	0.06134	-0.00412	0.069733	0.041809	0.058746	0.01297	-0.24475	-0.036011	0.063324	0.013733	0.053253	-0.037994	0.054169	-0.20828	-0.079041	0.095673	0.067596	-0.081177	0.017242	-0.007935	-0.10483	0	-0.097504	-0.009918	-0.001221	-0.014038
20.698	0.047607	-0.079651	-0.065002	0.006866	0.007324	0.048828	0.075378	-0.01709	0.27985	0.039215	0.096588	0.000458	-0.14374	-0.025177	0.093384	0.003967	0.009918	-0.06546	0.2771	-0.17258	-0.049438	0.12634	0.074921	-0.09613	0.019226	-0.002594	-0.054169	-0.002747	0.41321	0.005798	-0.002594	-0.01236
20.699	0.026703	-0.087738	0.06134	0.003052	0.007477	0.009308	0.027771	-0.018921	0.15198	-0.009155	-0.046539	0.011902	0.42313	0.062714	0.084381	0.023499	-0.051422	-0.050354	0.44418	-0.22324	-0.08606	0.14206	0.033112	-0.074158	0.013123	-0.007782	0.20172	-0.001068	0.2887	-0.03479	-0.001984	-0.013885
20.7	0.010529	-0.11658	0.1088	-0.009308	-0.003967	0.019836	-0.010071	-0.007629	-0.086823	-0.035706	-0.17853	0.007782	0.53757	0.10376	0.061646	0.014191	-0.084229	-0.050354	0.68832	-0.15793	-0.12131	0.15289	0.04715	-0.009766	0.005188	-0.000305	0.12543	-0.002136	0.17548	-0.032959	-0.002899	-0.01358
20.701	0.005035	-0.089111	0.093079	0.000153	0.009003	0.0177	-0.004578	-0.000153	-0.20294	-0.019989	-0.06073	0.006104	0.51559	0.050964	0.049591	0.009766	-0.062103	-0.085144	0.32577	-0.076294	-0.13809	0.18585	0.089569	-0.052338	0.000153	-0.00885	0.18295	-0.000916	0.068512	-0.033722	-0.002594	-0.012512
20.702	0.001373	-0.10513	0.01358	-0.005646	0.006714	0.007019	0.031281	-0.003052	-0.15381	0.005646	-0.014801	-0.009918	0.28564	-0.10056	0.10712	0.012665	-0.047913	-0.052338	-0.24246	0.010223	-0.15564	0.18601	0.087433	-0.002594	0.006561	-0.002747	0.11414	-0.001678	-0.066986	-0.010223	-0.007172	-0.023193
20.703	0.001984	-0.092621	-0.057983	-0.003052	0.012817	0.016632	0.029755	-0.003967	-0.094147	0.027161	-0.000458	0.009613	0.056305	-0.20325	0.084991	0.020752	-0.088043	-0.057678	-0.289	0.099792	-0.045624	0.23056	0.007324	-0.014496	0.000305	-0.011444	0.050049	-0.000916	-0.12756	0.010529	-0.001831	-0.014343
20.704	0.000305	-0.099335	-0.068817	0.000305	0.009003	0.009308	0.066223	0.00061	-0.088348	-0.006866	0.067902	0.014954	-0.45227	-0.024567	0.012512	0.02243	-0.087128	-0.073242	-0.061188	0.13534	0.078888	0.26855	0.053101	-0.003052	-0.002289	0.000763	-0.084381	-0.000153	-0.02243	-0.007172	-0.002441	-0.008392
20.705	-0.002594	-0.078735	-0.081177	0.003052	0.017395	-0.00351	0.063477	0.010376	-0.081482	-0.007782	0.079803	-0.003815	-0.31555	0.044708	0.062408	0.018311	-0.083771	-0.038147	0.041199	0.17227	0.14542	0.35141	0.006256	0.023804	0.006409	0.001678	-0.080414	0.00061	-0.001068	-0.025024	-0.003967	-0.010834
20.706	-0.003662	-0.092468	-0.009003	0.007629	0.02533	0.006561	0.082855	0.010223	-0.039063	0.00824	0.050812	0.002899	0.025482	0.062561	0.37186	0.007477	-0.06134	-0.05188	0.011749	0.12909	0.13977	0.39688	0.029907	0.000153	0.004425	0	-0.15335	-0.001678	0.03067	-0.025787	-0.001221	-0.010529
20.707	0.001526	-0.084991	0.037689	-0.001984	0.007019	0.019684	0.10635	0.004425	0.002441	0.028076	0.13107	0.005951	0.079803	-0.032043	0.21713	0.010681	-0.027161	-0.046692	-0.00946	0.12344	-0.003662	0.37293	-0.010223	-0.003357	0.015717	0.000763	-0.41672	-0.002594	0.18387	-0.061646	0	-0.01358
20.708	0.010376	-0.057373	0.0354	0.002594	-0.020905	0.00473	0.12146	0.000458	0.037842	0.021057	0.11231	0.005646	0.060577	0.003662	0.49408	0.011902	-0.021362	-0.054779	0.016022	0.083771	-0.12878	0.3421	-0.020447	0.025177	0.019379	-0.001831	-0.27557	-0.001984	0.2446	-0.070496	0.000763	-0.01358
20.709	0.007324	-0.041809	0.10773	0.016174	-0.037384	0.011292	0.061951	0.00824	-0.007782	0.019073	0.007935	0.007172	0.009766	0.071716	-0.067596	0.011597	-0.007935	0.010681	0.11078	0.042114	-0.05249	0.34454	0.015564	-0.031738	0.019531	-0.005188	0.13641	-0.003052	0.063782	-0.002899	-0.004272	-0.010376
20.71	0.007935	-0.028076	0.09491	0.015259	-0.030975	-0.019379	-0.055695	0.012512	-0.068359	-0.027008	-0.037994	0.002747	-0.13138	0.16144	-0.37018	0.007019	-0.007935	-0.000305	0.19531	-0.093231	0.21957	0.36118	0.072937	-0.043793	0.017395	-0.006866	0.5957	-0.001984	-0.10056	0.027924	-0.001831	0.001526
20.711	0.002594	-0.05722	0.048981	0.002594	0.001221	0.010223	-0.13168	0.013275	0.006866	-0.045471	-0.17014	0.00351	-0.05249	0.14832	0.005035	0.019226	0.01709	-0.0177	0.093384	-0.23377	0.097809	0.28168	0.083313	-0.016937	0.00351	0.001373	0.29602	-0.006409	-0.20218	0.066376	-0.004272	-0.005035
20.712	0.010071	-0.06012	-0.008392	0.00473	0.017853	-0.041046	-0.18478	0.010223	0.069275	-0.024719	-0.11307	0.002289	0.013885	-0.022583	-0.13107	0.009155	0.018158	-0.026398	0.073242	-0.20081	-0.040741	0.26352	0.10895	-0.048828	-0.007324	0.000305	0.020905	-0.001984	-0.096893	0.017548	0.000153	-0.003204
20.713	0.012512	-0.077515	0.052185	0.00824	0.018005	-0.023041	-0.15549	0.006409	0.13718	0.018005	-0.1384	0.005493	0.011597	-0.13596	-0.24963	0.020752	0.022583	-0.023956	0.1091	0.043335	-0.068054	0.28473	0.02594	-0.086212	-0.008698	-0.004883	0.13473	0.003815	-0.074005	-0.012817	-0.00351	0.000458
20.714	0.010834	-0.045013	0.038605	0.001984	0.008087	-0.032806	-0.061798	-0.004272	0.1384	-0.010834	-0.1265	0.004578	0.097504	-0.098877	0.46936	0.019989	0.032043	-0.022736	0.13382	0.19028	-0.061951	0.29923	0.016785	-0.085754	-0.005188	-0.006104	0.33737	0.000916	0.018311	-0.025177	-0.003815	-0.002136
20.715	0.010834	-0.040283	0.054016	0.010223	0.016785	-0.018921	0.009308	-0.000458	0.035706	0.011139	0.096588	0.002899	0.10147	0.003815	0.38925	0.009003	0.023651	-0.042114	0.05661	0.39093	-0.074921	0.30807	0.052032	-0.11459	-0.015717	-0.00412	0.51956	0.000305	0.001678	-0.049744	-0.003052	0.001526
20.716	-0.00061	-0.023956	0.079956	-0.007782	-0.014038	0.019531	0.027924	-0.002747	-0.054779	0.014038	0.35187	0.006104	0.16403	0.10529	-0.49454	-0.007019	0.025635	0.010376	0.022583	0.29877	-0.060425	0.32135	0.06073	-0.093079	-0.005798	-0.000763	0.006714	-0.000153	-0.44144	-0.054321	-0.003052	-0.005188
20.717	-0.00351	-0.054169	0.042877	0.011292	-0.011444	-0.001068	0.020599	0.000305	-0.000916	-0.006866	0.2388	-0.000763	0.242	0.006104	-0.03067	0.003357	0.006714	-0.00412	-0.010376	0.1445	-0.063171	0.3064	0.055847	-0.0737	0.005951	0.006104	-0.29938	-0.001984	-0.29663	-0.039978	-0.002289	-0.006409
